<mxfile host="app.diagrams.net" modified="2021-08-26T11:30:59.186Z" agent="5.0 (Macintosh; Intel Mac OS X 10_15_7) AppleWebKit/605.1.15 (KHTML, like Gecko) Version/14.1.2 Safari/605.1.15" etag="O2raXlgWTz7Mr5UvszOw" version="14.9.9" type="github">
  <diagram id="A4Ai5uUHAm1zkobAItNn" name="Page-1">
    <mxGraphModel dx="1500" dy="615" grid="1" gridSize="10" guides="1" tooltips="1" connect="1" arrows="1" fold="1" page="1" pageScale="1" pageWidth="827" pageHeight="1169" math="0" shadow="0">
      <root>
        <mxCell id="0" />
        <mxCell id="1" parent="0" />
        <mxCell id="cCqWEXwxcrRnBnD1FuGE-3" value="&lt;h1&gt;Guidelines&lt;/h1&gt;&lt;pre class=&quot;c-mrkdwn__pre&quot; style=&quot;box-sizing: inherit ; margin-top: 4px ; margin-bottom: 4px ; padding: 8px ; line-height: 1.50001 ; overflow-wrap: break-word ; word-break: normal ; border: 1px solid ; border-top-left-radius: 4px ; border-top-right-radius: 4px ; border-bottom-right-radius: 4px ; border-bottom-left-radius: 4px ; background: rgba(, 0.04) ; color: rgb(29 , 28 , 29) ; font-family: &amp;#34;monaco&amp;#34; , &amp;#34;menlo&amp;#34; , &amp;#34;consolas&amp;#34; , &amp;#34;courier new&amp;#34; , monospace &amp;#34;important&amp;#34;&quot;&gt;Step 1 - &lt;b&gt;Don&#39;t hit walls.&lt;/b&gt;&lt;br&gt;Use information in GameState to prevent your Battlesnake&amp;nbsp;&lt;span style=&quot;font-family: &amp;#34;helvetica&amp;#34; ; white-space: normal&quot;&gt;from moving beyond the boundaries of the board.&lt;/span&gt;&lt;/pre&gt;&lt;pre class=&quot;c-mrkdwn__pre&quot; style=&quot;box-sizing: inherit ; margin-top: 4px ; margin-bottom: 4px ; padding: 8px ; line-height: 1.50001 ; overflow-wrap: break-word ; word-break: normal ; border: 1px solid ; border-top-left-radius: 4px ; border-top-right-radius: 4px ; border-bottom-right-radius: 4px ; border-bottom-left-radius: 4px ; background: rgba(, 0.04) ; color: rgb(29 , 28 , 29) ; font-family: &amp;#34;monaco&amp;#34; , &amp;#34;menlo&amp;#34; , &amp;#34;consolas&amp;#34; , &amp;#34;courier new&amp;#34; , monospace &amp;#34;important&amp;#34;&quot;&gt;boardWidth := state.Board.Width&lt;br&gt;boardHeight := state.Board.Height&lt;/pre&gt;&lt;pre class=&quot;c-mrkdwn__pre&quot; style=&quot;box-sizing: inherit ; margin-top: 4px ; margin-bottom: 4px ; padding: 8px ; line-height: 1.50001 ; overflow-wrap: break-word ; word-break: normal ; border: 1px solid ; border-top-left-radius: 4px ; border-top-right-radius: 4px ; border-bottom-right-radius: 4px ; border-bottom-left-radius: 4px ; background: rgba(, 0.04) ; color: rgb(29 , 28 , 29) ; font-family: &amp;#34;monaco&amp;#34; , &amp;#34;menlo&amp;#34; , &amp;#34;consolas&amp;#34; , &amp;#34;courier new&amp;#34; , monospace &amp;#34;important&amp;#34;&quot;&gt;Step 2 - &lt;b&gt;Don&#39;t hit yourself.&lt;/b&gt;&lt;br&gt;Use information in GameState to prevent your Battlesnake from colliding with itself.&lt;br&gt;mybody := state.You.Body&lt;/pre&gt;&lt;pre class=&quot;c-mrkdwn__pre&quot; style=&quot;box-sizing: inherit ; margin-top: 4px ; margin-bottom: 4px ; padding: 8px ; line-height: 1.50001 ; overflow-wrap: break-word ; word-break: normal ; border: 1px solid ; border-top-left-radius: 4px ; border-top-right-radius: 4px ; border-bottom-right-radius: 4px ; border-bottom-left-radius: 4px ; background: rgba(, 0.04) ; color: rgb(29 , 28 , 29) ; font-family: &amp;#34;monaco&amp;#34; , &amp;#34;menlo&amp;#34; , &amp;#34;consolas&amp;#34; , &amp;#34;courier new&amp;#34; , monospace &amp;#34;important&amp;#34;&quot;&gt;Step 3 - &lt;b&gt;Don&#39;t collide with others.&lt;/b&gt;&lt;br&gt;Use information in GameState to prevent your Battlesnake from colliding with others.&lt;/pre&gt;&lt;pre class=&quot;c-mrkdwn__pre&quot; style=&quot;box-sizing: inherit ; margin-top: 4px ; margin-bottom: 4px ; padding: 8px ; line-height: 1.50001 ; overflow-wrap: break-word ; word-break: normal ; border: 1px solid ; border-top-left-radius: 4px ; border-top-right-radius: 4px ; border-bottom-right-radius: 4px ; border-bottom-left-radius: 4px ; background: rgba(, 0.04) ; color: rgb(29 , 28 , 29) ; font-family: &amp;#34;monaco&amp;#34; , &amp;#34;menlo&amp;#34; , &amp;#34;consolas&amp;#34; , &amp;#34;courier new&amp;#34; , monospace &amp;#34;important&amp;#34;&quot;&gt;Step 4 - &lt;b&gt;Find food.&lt;/b&gt;&lt;br&gt;Use information in GameState to seek out and find food.&amp;nbsp;&lt;/pre&gt;&lt;pre class=&quot;c-mrkdwn__pre&quot; style=&quot;box-sizing: inherit ; margin-top: 4px ; margin-bottom: 4px ; padding: 8px ; line-height: 1.50001 ; overflow-wrap: break-word ; word-break: normal ; border: 1px solid ; border-top-left-radius: 4px ; border-top-right-radius: 4px ; border-bottom-right-radius: 4px ; border-bottom-left-radius: 4px ; background: rgba(, 0.04) ; color: rgb(29 , 28 , 29) ; font-family: &amp;#34;monaco&amp;#34; , &amp;#34;menlo&amp;#34; , &amp;#34;consolas&amp;#34; , &amp;#34;courier new&amp;#34; , monospace &amp;#34;important&amp;#34;&quot;&gt;&lt;font data-font-src=&quot;https://fonts.googleapis.com/css?family=Roboto+mono&quot;&gt;Step 5 - &lt;b&gt;Select a move to make based on strategy&lt;/b&gt;, rather than random&lt;/font&gt;&lt;/pre&gt;&lt;pre class=&quot;c-mrkdwn__pre&quot; style=&quot;box-sizing: inherit ; margin-top: 4px ; margin-bottom: 4px ; padding: 8px ; line-height: 1.50001 ; overflow-wrap: break-word ; word-break: normal ; border: 1px solid ; border-top-left-radius: 4px ; border-top-right-radius: 4px ; border-bottom-right-radius: 4px ; border-bottom-left-radius: 4px&quot;&gt;&lt;font color=&quot;#1d1c1d&quot;&gt;Finally, choose a move from the available safe moves.&lt;/font&gt;&lt;/pre&gt;" style="text;html=1;strokeColor=none;fillColor=none;spacing=5;spacingTop=-20;whiteSpace=wrap;overflow=hidden;rounded=0;" vertex="1" parent="1">
          <mxGeometry x="10" y="10" width="770" height="480" as="geometry" />
        </mxCell>
      </root>
    </mxGraphModel>
  </diagram>
</mxfile>
